<svg width="282" height="144" viewBox="0 0 282 144" fill="none" xmlns="http://www.w3.org/2000/svg">
<path fill-rule="evenodd" clip-rule="evenodd" d="M0.607595 121.916C2.10758 125.916 13.6076 125.916 15.1076 121.916C16.6076 117.916 15.1076 39.9164 15.1076 39.9164C15.1076 26.9163 28.6076 17.4164 43.1076 17.4164C57.6076 17.4164 66.1076 24.9163 69.6076 36.9164C71.4914 44.9017 71.5326 49.6001 69.6076 58.4164C67.2397 63.3665 64.6821 65.849 58.6076 69.9164C58.025 70.1784 57.4349 70.4759 56.8155 70.7883C54.344 72.0347 51.4053 73.5166 46.6076 73.9164C40.6076 74.4163 40.1076 86.4163 46.6076 89.9164C48.6647 91.0241 54.528 95.337 62.1846 100.969C78.7205 113.132 103.621 131.448 116.608 136.916C135.608 144.916 152.108 148.916 174.608 132.916C197.108 116.916 195.608 113.416 195.608 113.416C195.608 113.416 196.108 109.916 195.608 105.916C195.108 101.916 179.108 105.916 179.108 105.916C172.342 114.773 167.284 118.678 155.608 123.416C145.454 126.075 139.761 126.131 129.608 123.416C117.678 119.799 100.743 107.913 67.1076 83.4164C75.9143 77.9871 80.3594 74.6898 84.6076 66.9164C86.1076 62.9163 87.0807 58.4164 87.1076 53.9164C87.1673 43.9174 86.6565 39.0504 84.6076 31.9164C78.8556 17.7777 67.1076 8.41639 58.6076 3.91636C50.1076 -0.583675 33.1076 -1.58369 23.6076 2.91636C14.1076 7.41641 6.83127 15.7786 3.34831 21.9163C1.52582 25.1279 0.607595 38.4164 0.607595 38.4164C0.72842 54.0369 0.478228 70.6771 0.2632 84.9785C-0.0297883 104.465 -0.257492 119.609 0.607595 121.916ZM220.288 20.6277C217.268 17.3306 212.147 17.1058 208.85 20.1256C205.553 23.1454 205.328 28.2662 208.348 31.5634L231.754 57.119L207.704 80.4485L207.664 80.1312C208.226 74.3672 207.567 70.2822 205.577 64.1312C196.599 45.31 189.782 37.9861 175.577 28.6312C162.933 21.2521 150.077 20.1312 144.077 20.1312C138.077 20.1312 120.077 22.6312 106.077 34.6312C92.0773 46.6312 87.0773 63.6312 86.5773 68.6312C86.0773 73.6312 85.5773 80.1312 86.5773 86.6312C87.5773 93.1312 104.577 97.6312 104.577 97.6312C100.666 79.7379 104.077 69.1312 107.077 60.1312C110.077 51.1312 126.577 37.1312 144.077 37.1312C161.577 37.1312 178.077 47.6312 184.577 58.1312C190.804 68.1892 192.442 78.2472 191.251 88.7446C190.815 89.9586 190.577 91.2672 190.577 92.6312C190.577 98.9825 195.726 104.131 202.077 104.131C206.336 104.131 211.841 100.503 213.829 97.0638L242.694 69.0638L266.466 95.0189C269.486 98.316 274.607 98.5408 277.904 95.521C281.201 92.5012 281.426 87.3804 278.406 84.0833L254.321 57.7859L279.407 33.4513C282.616 30.3383 282.694 25.2131 279.581 22.0039C276.468 18.7946 271.343 18.7167 268.134 21.8297L243.38 45.8411L220.288 20.6277Z" fill="white"/>
</svg>
